<svg id="Layer_1" data-name="Layer 1" xmlns="http://www.w3.org/2000/svg" viewBox="0 0 252.72 171.42"><defs><style>.cls-1{fill:#393939;}.cls-2{fill:#226624;}.cls-3{fill:#53cb8a;}</style></defs><path class="cls-1" d="M261.35,113a3.1,3.1,0,0,0-4.38,0l-47.53,47.53a3.09,3.09,0,0,0,4.37,4.38l47.54-47.54A3.08,3.08,0,0,0,261.35,113Z" transform="translate(-136.47 -60.14)"/><path class="cls-2" d="M251.4,165.78a16.38,16.38,0,0,1-16.35-16.36,10.18,10.18,0,0,0-10.17-10.16,16.38,16.38,0,0,1-16.35-16.36c0-1.19,0-2.36.1-3.49a3.09,3.09,0,0,1,3.09-2.92h9L212,107.76a3.12,3.12,0,0,1-.77-3.09,62.55,62.55,0,0,1,10.63-20.44,3.09,3.09,0,0,1,3.82-.86l12.18,6.09-6.09-12.18a3.12,3.12,0,0,1,.86-3.82,62.76,62.76,0,0,1,26-12,3.08,3.08,0,0,1,2.81.84L268.2,69V63.23a3.09,3.09,0,0,1,3.09-3.09h39.78a3.09,3.09,0,0,1,3.1,3.09V103a3.1,3.1,0,0,1-3.1,3.1h-5.78l6.76,6.76a3.1,3.1,0,0,1,.84,2.81,62.79,62.79,0,0,1-12.05,26,3.09,3.09,0,0,1-3.82.86l-12.18-6.09,6.09,12.18a3.09,3.09,0,0,1-.86,3.82,62.07,62.07,0,0,1-20.44,10.63,3.06,3.06,0,0,1-3.08-.77l-8.74-8.73v9a3.09,3.09,0,0,1-2.92,3.09c-1.16.06-2.33.1-3.49.1Z" transform="translate(-136.47 -60.14)"/><path class="cls-3" d="M235.05,149.42a16.38,16.38,0,0,0,16.35,16.36c1.16,0,2.33,0,3.49-.1a3.09,3.09,0,0,0,2.92-3.09v-9l8.74,8.73a3.08,3.08,0,0,0,3.08.77,62.07,62.07,0,0,0,20.44-10.63,3.09,3.09,0,0,0,.86-3.82l-6.09-12.18L297,142.54a3.09,3.09,0,0,0,3.82-.86,62.79,62.79,0,0,0,12.05-26,3.1,3.1,0,0,0-.84-2.81l-6.76-6.76h5.78a3.1,3.1,0,0,0,3.1-3.1V63.23a3.1,3.1,0,0,0-.91-2.19l-81.19,81.2a10.13,10.13,0,0,1,3,7.18Z" transform="translate(-136.47 -60.14)"/><path class="cls-2" d="M136.47,213.65V180.18h1.69l14.43,32.71h-1.36l14.29-32.71h1.69v33.47h-1.93l.05-31.64,1.27.1-13.91,31.54h-1.6l-14.15-31.59,1.41-.05.05,31.64Z" transform="translate(-136.47 -60.14)"/><path class="cls-2" d="M189.58,214A14.23,14.23,0,0,1,181.8,212a13.45,13.45,0,0,1-5.05-5.9,21.44,21.44,0,0,1-1.79-9.14,21.66,21.66,0,0,1,1.77-9.14,13.4,13.4,0,0,1,5-5.9,14.36,14.36,0,0,1,7.82-2.06,14.51,14.51,0,0,1,7.85,2.06,13.37,13.37,0,0,1,5,5.88,24.36,24.36,0,0,1,0,18.28,13.39,13.39,0,0,1-5.08,5.92A14.33,14.33,0,0,1,189.58,214Zm0-1.93q5.92,0,9.21-4t3.29-11.23q0-7.25-3.26-11.19t-9.24-4q-6,0-9.23,4t-3.27,11.17q0,7.19,3.27,11.21T189.58,212.09Z" transform="translate(-136.47 -60.14)"/><path class="cls-2" d="M212,213.65V180.18h1.64l23.18,31.44-1-.09V180.18h1.83v33.47H236L212.85,182.2l1,.1v31.35Z" transform="translate(-136.47 -60.14)"/><path class="cls-2" d="M256.79,214a22.81,22.81,0,0,1-4.79-.47,14.35,14.35,0,0,1-7.38-4l1-1.65a15.66,15.66,0,0,0,5,3.27,17.52,17.52,0,0,0,6.16,1q4.47,0,6.93-1.9a6.34,6.34,0,0,0,2.47-5.33,4.32,4.32,0,0,0-1.31-3.36,9.21,9.21,0,0,0-3.39-1.88,44.06,44.06,0,0,0-4.37-1.2c-1.32-.32-2.67-.67-4.07-1.06a19,19,0,0,1-3.87-1.55,8.14,8.14,0,0,1-2.89-2.56,7.21,7.21,0,0,1-1.11-4.19,8.49,8.49,0,0,1,1.41-4.86,9.2,9.2,0,0,1,4-3.24,15,15,0,0,1,6.15-1.15,17.93,17.93,0,0,1,4.28.49,14.49,14.49,0,0,1,3.78,1.5,13.8,13.8,0,0,1,3.18,2.52L267,186a16.33,16.33,0,0,0-4.79-3.22,14.24,14.24,0,0,0-5.46-1,11.08,11.08,0,0,0-7,2,6.53,6.53,0,0,0-2.52,5.45,5.14,5.14,0,0,0,1.2,3.55,8.05,8.05,0,0,0,3.1,2.09,32,32,0,0,0,4,1.27c1.38.34,2.81.69,4.3,1a22.57,22.57,0,0,1,4.16,1.39,8,8,0,0,1,3.1,2.39,6.55,6.55,0,0,1,1.18,4.12,8,8,0,0,1-1.41,4.7,9.43,9.43,0,0,1-4,3.17A14.73,14.73,0,0,1,256.79,214Z" transform="translate(-136.47 -60.14)"/><path class="cls-2" d="M282.73,213.65V182H270.42v-1.79H297V182H284.66v31.68Z" transform="translate(-136.47 -60.14)"/><path class="cls-2" d="M302.15,213.65V180.18h20.11V182H304.12v13.73h17.2v1.88h-17.2v14.19h18.14v1.84Z" transform="translate(-136.47 -60.14)"/><path class="cls-2" d="M329.5,213.65V180.18H342c3.42,0,6.07.77,8,2.3a8.15,8.15,0,0,1,2.84,6.73,8,8,0,0,1-2.86,6.58c-1.91,1.56-4.58,2.35-8,2.35l3.19-.62a5.09,5.09,0,0,1,3.18,1,6.94,6.94,0,0,1,2.09,3.29l4.32,11.85h-2l-4.09-11.14a5.59,5.59,0,0,0-2.49-3.34,10,10,0,0,0-4.28-.75H331.43v15.23Zm2-17.11H342q4.32,0,6.49-1.88a6.91,6.91,0,0,0,2.16-5.5,6.6,6.6,0,0,0-2.14-5.34c-1.43-1.2-3.6-1.81-6.51-1.81H331.47Z" transform="translate(-136.47 -60.14)"/><path class="cls-2" d="M360.61,213.65H358.5l14.38-33.47h1.93l14.38,33.47h-2.12l-13.86-32.29h1.22Zm3.76-9.26.52-1.88h18.05l.61,1.88Z" transform="translate(-136.47 -60.14)"/><path class="cls-3" d="M244.64,231.52a5.36,5.36,0,0,1-2.24-.43,3.6,3.6,0,0,1-1.48-1.19,3,3,0,0,1-.53-1.78,3.46,3.46,0,0,1,.78-2.22,8.17,8.17,0,0,1,2.55-1.9,19.58,19.58,0,0,0,1.73-1.07,3.44,3.44,0,0,0,.88-.87,1.56,1.56,0,0,0,.25-.85,1.36,1.36,0,0,0-1.44-1.44,1.64,1.64,0,0,0-1.19.43,1.51,1.51,0,0,0-.45,1.13,1.84,1.84,0,0,0,.12.66,3.18,3.18,0,0,0,.41.71c.2.26.49.6.86,1l4.39,4.79a7.1,7.1,0,0,0,1.22,1,7.76,7.76,0,0,0,1.52.79l-.94,1.25a9.27,9.27,0,0,1-1.63-.87,7.21,7.21,0,0,1-1.25-1.06l-4.82-5.22a10.68,10.68,0,0,1-.93-1.15,4,4,0,0,1-.5-1,2.83,2.83,0,0,1-.16-1,2.67,2.67,0,0,1,.43-1.53,2.82,2.82,0,0,1,1.17-1,3.87,3.87,0,0,1,1.71-.36,3.23,3.23,0,0,1,2.21.72,2.45,2.45,0,0,1,.82,2,2.89,2.89,0,0,1-.34,1.36,4.11,4.11,0,0,1-1.12,1.25A16.17,16.17,0,0,1,244.6,225a8.23,8.23,0,0,0-1.4,1,3.22,3.22,0,0,0-.79.95,2.38,2.38,0,0,0-.24,1.08,1.82,1.82,0,0,0,.68,1.5,2.84,2.84,0,0,0,1.84.55,3.61,3.61,0,0,0,2.3-.79,5.45,5.45,0,0,0,1.62-2.21,8.93,8.93,0,0,0,.65-3.3h1.57a11,11,0,0,1-.54,3.15,7.86,7.86,0,0,1-1.32,2.45,5.89,5.89,0,0,1-1.92,1.58A5.28,5.28,0,0,1,244.64,231.52Z" transform="translate(-136.47 -60.14)"/><path class="cls-3" d="M263.68,231.54a6.32,6.32,0,0,1-3.24-.79,5.28,5.28,0,0,1-2.1-2.28,8,8,0,0,1-.73-3.5,7.77,7.77,0,0,1,.73-3.48,5.28,5.28,0,0,1,2.1-2.26,6.32,6.32,0,0,1,3.24-.79,7.35,7.35,0,0,1,2.42.39A5.33,5.33,0,0,1,268,220l-.65,1.39a6.24,6.24,0,0,0-1.77-1.07,5.17,5.17,0,0,0-1.9-.34,3.82,3.82,0,0,0-3.08,1.29,5.56,5.56,0,0,0-1.1,3.7,5.63,5.63,0,0,0,1.09,3.72,3.81,3.81,0,0,0,3.09,1.3,5.38,5.38,0,0,0,1.9-.33,6.48,6.48,0,0,0,1.77-1.07L268,230a5.07,5.07,0,0,1-1.92,1.17A7.1,7.1,0,0,1,263.68,231.54Z" transform="translate(-136.47 -60.14)"/><path class="cls-3" d="M270.05,218.36h2.11v1.91h-2.11Zm.13,13v-9.07H272v9.07Z" transform="translate(-136.47 -60.14)"/><path class="cls-3" d="M282.24,230.35a4.53,4.53,0,0,1-1.55.86,5.92,5.92,0,0,1-1.91.31,5.19,5.19,0,0,1-2.48-.56,3.74,3.74,0,0,1-1.6-1.62,5.86,5.86,0,0,1,0-5,4.07,4.07,0,0,1,1.52-1.66,4.2,4.2,0,0,1,2.25-.59,3.93,3.93,0,0,1,2.1.54,3.53,3.53,0,0,1,1.36,1.54,5.46,5.46,0,0,1,.48,2.4v.3h-6.68l0-1.08h5.6l-.52.65a3.53,3.53,0,0,0-.58-2.23,2.06,2.06,0,0,0-1.75-.77,2.29,2.29,0,0,0-1.89.85,4.64,4.64,0,0,0,.06,4.93,2.72,2.72,0,0,0,2.16.84,4.44,4.44,0,0,0,1.49-.25,4.6,4.6,0,0,0,1.37-.78Z" transform="translate(-136.47 -60.14)"/></svg>