<svg id="Layer_1" data-name="Layer 1" xmlns="http://www.w3.org/2000/svg" viewBox="0 0 81.62 81.62"><defs><style>.cls-1{fill:#393939;}.cls-2{fill:#226624;}.cls-3{fill:#53cb8a;}</style></defs><path class="cls-1" d="M50.54,49.81a2.38,2.38,0,0,0-3.38,0L10.44,86.53a2.39,2.39,0,0,0,3.38,3.39L50.54,53.19A2.38,2.38,0,0,0,50.54,49.81Z" transform="translate(-9.74 -9)"/><path class="cls-2" d="M42.86,90.62A12.65,12.65,0,0,1,30.22,78a7.86,7.86,0,0,0-7.85-7.85A12.65,12.65,0,0,1,9.74,57.49c0-.92,0-1.82.07-2.7a2.39,2.39,0,0,1,2.39-2.25h7l-6.75-6.75a2.38,2.38,0,0,1-.59-2.38A48,48,0,0,1,20,27.62,2.38,2.38,0,0,1,23,27l9.41,4.71-4.7-9.41a2.41,2.41,0,0,1,.66-3A48.67,48.67,0,0,1,48.44,10a2.38,2.38,0,0,1,2.17.65l5.23,5.22V11.39A2.39,2.39,0,0,1,58.23,9H89a2.39,2.39,0,0,1,2.39,2.39V42.12A2.39,2.39,0,0,1,89,44.52H84.49l5.22,5.22a2.36,2.36,0,0,1,.65,2.17A48.54,48.54,0,0,1,81.06,72a2.4,2.4,0,0,1-3,.67L68.7,68l4.7,9.41a2.39,2.39,0,0,1-.66,2.95,48.19,48.19,0,0,1-15.8,8.22,2.41,2.41,0,0,1-2.38-.6l-6.75-6.75v7a2.39,2.39,0,0,1-2.25,2.39c-.9,0-1.81.08-2.7.08Z" transform="translate(-9.74 -9)"/><path class="cls-3" d="M30.22,78A12.65,12.65,0,0,0,42.86,90.62c.89,0,1.8,0,2.7-.08a2.39,2.39,0,0,0,2.25-2.39v-7l6.75,6.75a2.41,2.41,0,0,0,2.38.6,48.19,48.19,0,0,0,15.8-8.22,2.39,2.39,0,0,0,.66-2.95L68.7,68l9.41,4.71a2.4,2.4,0,0,0,3-.67,48.54,48.54,0,0,0,9.3-20.09,2.39,2.39,0,0,0-.65-2.17l-5.22-5.22H89a2.39,2.39,0,0,0,2.39-2.4V11.39a2.39,2.39,0,0,0-.7-1.69L27.92,72.43A7.84,7.84,0,0,1,30.22,78Z" transform="translate(-9.74 -9)"/></svg>